PathFileType	4	(x/y/z)	S01_PSF_T06.trc
DataRate	CameraRate	NumFrames	NumMarkers	Units	OrigDataRate	OrigDataStartFrame	OrigNumFrames
240	240	6	51	mm	240	1	471
Frame#	Time	Sternum			R.Acromium			L.Acromium			Top.Head			R.ASIS			L.ASIS			R.PSIS			L.PSIS			R.Great.Tro			L.Great.Tro			R.Iliac.Crest			L.Iliac.Crest			V.Sacral			R.Thigh.Upper.Post			R.Thigh.Lower.Ant			R.Thigh.Lower.Post			R.Thigh.Upper.Ant			R.Knee.Lat			R.Knee.Med			R.Shank.Upper.Post			R.Shank.Lower.Ant			R.Shank.Lower.Post			R.Shank.Upper.Ant			R.Ankle.Lat			R.Ankle.Med			R.Heel.Upper			R.Heel.Med			R.Heel.Lat			R.Toe.Lat			R.Toe.Med			R.Toe.Tip			L.Thigh.Upper.Post			L.Thigh.Lower.Ant			L.Thigh.Lower.Post			L.Thigh.Upper.Ant			L.Knee.Lat			L.Knee.Med			L.Shank.Upper.Post			L.Shank.Lower.Ant			L.Shank.Lower.Post			L.Shank.Upper.Ant			L.Ankle.Lat			L.Ankle.Med			L.Heel.Upper			L.Heel.Med			L.Heel.Lat			L.Toe.Lat			L.Toe.Med			L.Toe.Tip			Cervical.Spine			Back			
		X1	Y1	Z1	X2	Y2	Z2	X3	Y3	Z3	X4	Y4	Z4	X5	Y5	Z5	X6	Y6	Z6	X7	Y7	Z7	X8	Y8	Z8	X9	Y9	Z9	X10	Y10	Z10	X11	Y11	Z11	X12	Y12	Z12	X13	Y13	Z13	X14	Y14	Z14	X15	Y15	Z15	X16	Y16	Z16	X17	Y17	Z17	X18	Y18	Z18	X19	Y19	Z19	X20	Y20	Z20	X21	Y21	Z21	X22	Y22	Z22	X23	Y23	Z23	X24	Y24	Z24	X25	Y25	Z25	X26	Y26	Z26	X27	Y27	Z27	X28	Y28	Z28	X29	Y29	Z29	X30	Y30	Z30	X31	Y31	Z31	X32	Y32	Z32	X33	Y33	Z33	X34	Y34	Z34	X35	Y35	Z35	X36	Y36	Z36	X37	Y37	Z37	X38	Y38	Z38	X39	Y39	Z39	X40	Y40	Z40	X41	Y41	Z41	X42	Y42	Z42	X43	Y43	Z43	X44	Y44	Z44	X45	Y45	Z45	X46	Y46	Z46	X47	Y47	Z47	X48	Y48	Z48	X49	Y49	Z49	X50	Y50	Z50	X51	Y51	Z51	

1	0	NaN	NaN	NaN	-1413.8	1508.6	391	-1447	1511.5	64.192	-1384.6	1823.8	207.4	NaN	NaN	NaN	NaN	NaN	NaN	-1596.6	1038.1	291.93	-1594.5	1033.2	188.66	-1445.4	942.26	468.65	-1442.3	956.27	45.304	-1441	1101.7	452.96	-1458.7	1079.3	47.879	-1606.4	998.94	237.88	-1499.5	643.37	456.88	-1429.1	563.38	450.65	-1502.8	553.35	446.23	-1427.1	654.18	458.16	-1509.7	491.64	450.14	-1463.6	476.74	305.76	-1650.8	423.49	453.41	-1671.3	320.85	417.58	NaN	NaN	NaN	NaN	NaN	NaN	-1864.6	253.1	395.69	-1823.6	230.8	306.33	-1916	296.18	331.94	-1926	270.01	298.05	-1941	270.23	359.36	-1866.4	97.393	420.73	-1826.6	84.591	302.23	NaN	NaN	NaN	-1369.1	674.44	78.283	-1264	637.23	80.806	-1329.3	594.56	100.43	-1315.8	716.1	59.378	-1250.9	534.32	96.234	-1238.1	548.53	237.5	-1281.3	391.46	78.324	-1210.8	309.47	108.09	-1270.9	313.9	82.24	-1218.3	385.57	98.615	-1269.9	102.1	119.72	-1245.8	116.1	219.84	-1339.9	71.904	167.53	-1328.7	48.295	201.11	-1331.3	46.665	139.09	-1119.2	42.142	108.99	-1096.2	54.495	230.53	-1032.2	64.719	179.51	-1521.8	1571.6	234.41	-1613.4	1261.5	265.88
2	0.0041667	NaN	NaN	NaN	-1409.2	1509.9	390.35	-1441.1	1512.4	63.522	-1379.4	1824.8	206.39	NaN	NaN	NaN	NaN	NaN	NaN	-1591.9	1039.1	291.29	-1589.7	1034.5	188.04	-1440.8	943.24	468.34	-1437.3	957.52	44.991	-1436.8	1102.6	452.46	-1454.1	1080.3	47.237	-1601.7	1000	237.12	-1491.2	643.82	457.11	-1420.1	564.48	451.05	-1493.5	553.75	446.58	-1418.4	655.29	458.58	-1499.7	492.37	450.61	-1453.8	477.63	305.88	-1640.6	424.81	453.66	-1661.9	322.6	417.51	NaN	NaN	NaN	NaN	NaN	NaN	-1855.6	256.73	395.07	-1814.9	233.17	306.15	-1905.9	300.03	330.53	-1916	273.92	296.9	-1931.5	274.82	358.2	-1859.9	101.6	421.05	-1819.8	86.784	303.1	NaN	NaN	NaN	-1365.8	675.18	77.906	-1261	637.36	80.729	-1326.6	595.08	100.1	-1312.1	716.55	59.104	-1248.5	534.27	96.155	-1235.6	548.52	237.37	-1279.9	391.56	78.314	-1209.7	309.26	107.97	-1269.8	313.91	82.241	-1216.9	385.43	98.529	-1269.8	102.17	119.73	-1245.6	116.14	219.83	-1339.8	71.915	167.48	-1328.7	48.389	201.08	-1331.3	46.725	139.05	-1119.1	42.045	109	-1096.1	54.293	230.58	-1032.1	64.459	179.58	-1516.7	1572.7	233.59	-1608.6	1262.7	265.21
3	0.0083333	NaN	NaN	NaN	-1404.4	1511.3	389.68	-1435	1513.4	62.837	-1373.9	1825.9	205.36	NaN	NaN	NaN	NaN	NaN	NaN	-1587.1	1040	290.61	-1584.6	1035.9	187.37	-1436.2	944.29	468.04	-1432.1	958.81	44.67	-1432.5	1103.6	451.96	-1449.3	1081.3	46.591	-1596.7	1001.2	236.33	-1482.6	644.33	457.34	-1410.7	565.66	451.46	-1483.9	554.21	446.93	-1409.3	656.49	459.01	-1489.3	493.19	451.09	-1443.5	478.6	306.01	-1630.1	426.23	453.89	-1652.1	324.4	417.43	NaN	NaN	NaN	NaN	NaN	NaN	-1846.3	260.45	394.42	-1805.7	235.6	305.94	-1895.3	303.9	329.06	-1905.6	277.83	295.7	-1921.6	279.44	356.97	-1852.9	105.91	421.39	-1812.4	89.028	304.01	NaN	NaN	NaN	-1362.4	675.95	77.518	-1257.8	637.5	80.643	-1323.7	595.63	99.761	-1308.2	717.01	58.819	-1246.1	534.23	96.064	-1233.1	548.49	237.22	-1278.5	391.66	78.293	-1208.6	309.05	107.85	-1268.8	313.92	82.23	-1215.4	385.28	98.43	-1269.7	102.23	119.74	-1245.5	116.18	219.81	-1339.8	71.932	167.43	-1328.7	48.486	201.04	-1331.3	46.786	139.01	-1119	41.943	109	-1096.1	54.089	230.63	-1032	64.193	179.65	-1511.4	1573.9	232.75	-1603.5	1264	264.5
4	0.0125	NaN	NaN	NaN	-1399.4	1512.7	389.01	-1428.8	1514.3	62.143	-1368.2	1827	204.31	NaN	NaN	NaN	NaN	NaN	NaN	-1582.1	1041.1	289.9	-1579.3	1037.3	186.67	-1431.4	945.42	467.74	-1426.7	960.12	44.345	-1428.2	1104.5	451.48	-1444.2	1082.3	45.948	-1591.6	1002.4	235.51	-1473.7	644.92	457.57	-1401	566.94	451.89	-1474	554.76	447.28	-1400.1	657.77	459.45	-1478.6	494.1	451.58	-1432.9	479.65	306.15	-1619.2	427.73	454.09	-1641.9	326.27	417.34	NaN	NaN	NaN	NaN	NaN	NaN	-1836.5	264.23	393.72	-1796.1	238.07	305.68	-1884.4	307.75	327.53	-1894.8	281.68	294.44	-1911.3	284.03	355.69	-1845.5	110.25	421.76	-1804.6	91.299	304.97	NaN	NaN	NaN	-1358.9	676.75	77.125	-1254.7	637.65	80.547	-1320.8	596.2	99.41	-1304.2	717.49	58.525	-1243.6	534.19	95.956	-1230.6	548.45	237.03	-1277.2	391.76	78.259	-1207.5	308.84	107.72	-1267.7	313.92	82.205	-1214	385.12	98.317	-1269.6	102.3	119.75	-1245.4	116.23	219.79	-1339.8	71.957	167.38	-1328.7	48.585	201.01	-1331.3	46.849	138.97	-1119	41.839	109	-1096	53.886	230.68	-1032	63.924	179.73	-1506	1575.1	231.89	-1598.2	1265.3	263.78
5	0.016667	NaN	NaN	NaN	-1394.3	1514.1	388.34	-1422.4	1515.3	61.447	-1362.5	1828.2	203.26	NaN	NaN	NaN	NaN	NaN	NaN	-1576.9	1042.2	289.17	-1574	1038.7	185.94	-1426.6	946.62	467.45	-1421.2	961.45	44.019	-1423.7	1105.6	451.02	-1439	1083.4	45.318	-1586.3	1003.7	234.65	-1464.6	645.58	457.8	-1391.1	568.32	452.35	-1463.8	555.4	447.63	-1390.7	659.15	459.88	-1467.6	495.1	452.08	-1422	480.78	306.28	-1608.1	429.31	454.25	-1631.3	328.18	417.24	NaN	NaN	NaN	NaN	NaN	NaN	-1826.5	268.02	392.99	-1786.1	240.55	305.38	-1873.1	311.5	325.96	-1883.7	285.4	293.15	-1900.8	288.53	354.34	-1837.6	114.58	422.17	-1796.3	93.57	305.96	NaN	NaN	NaN	-1355.4	677.57	76.728	-1251.4	637.8	80.44	-1317.8	596.78	99.053	-1300.1	717.98	58.222	-1241.1	534.15	95.832	-1228	548.39	236.81	-1275.8	391.87	78.208	-1206.4	308.63	107.58	-1266.6	313.93	82.162	-1212.5	384.96	98.188	-1269.5	102.38	119.75	-1245.2	116.28	219.76	-1339.7	71.991	167.33	-1328.6	48.687	200.97	-1331.3	46.912	138.93	-1118.9	41.732	109	-1096	53.686	230.72	-1031.9	63.654	179.8	-1500.4	1576.4	231.03	-1592.9	1266.6	263.03
6	0.020833	NaN	NaN	NaN	-1389	1515.6	387.67	-1415.9	1516.4	60.756	-1356.6	1829.4	202.21	NaN	NaN	NaN	NaN	NaN	NaN	-1571.7	1043.3	288.4	-1568.5	1040.2	185.19	-1421.8	947.89	467.19	-1415.6	962.77	43.695	-1419.2	1106.6	450.59	-1433.5	1084.6	44.708	-1581	1005	233.77	-1455.2	646.33	458.01	-1381	569.8	452.82	-1453.4	556.14	447.96	-1381.1	660.61	460.31	-1456.4	496.2	452.57	-1410.9	481.99	306.42	-1596.7	430.96	454.38	-1620.5	330.12	417.12	NaN	NaN	NaN	NaN	NaN	NaN	-1816.3	271.77	392.24	-1775.7	243.01	305.04	-1861.7	315.12	324.36	-1872.4	288.94	291.83	-1890.1	292.86	352.96	-1829.2	118.85	422.6	-1787.4	95.817	306.99	NaN	NaN	NaN	-1351.8	678.42	76.332	-1248.1	637.95	80.321	-1314.9	597.38	98.69	-1296	718.48	57.912	-1238.6	534.11	95.69	-1225.5	548.31	236.55	-1274.4	391.97	78.14	-1205.3	308.42	107.43	-1265.5	313.94	82.102	-1211	384.8	98.041	-1269.3	102.45	119.75	-1245.1	116.34	219.72	-1339.7	72.034	167.28	-1328.6	48.79	200.94	-1331.3	46.976	138.89	-1118.8	41.622	109.01	-1095.9	53.493	230.76	-1031.9	63.387	179.87	-1494.7	1577.7	230.16	-1587.4	1268	262.26
